<?xml version="1.0" encoding="UTF-8" standalone="no"?>
<svg xmlns="http://www.w3.org/2000/svg" version="1.2" baseProfile="tiny" viewBox="0.00 0.00 214.00 103.00">
<g stroke-width="2.00" fill="none" stroke-linecap="butt">
<path stroke="#5879aa" vector-effect="non-scaling-stroke" d="
  M 57.87 32.54
  Q 57.74 32.38 57.60 32.23"
/>
<path stroke="#5879aa" vector-effect="non-scaling-stroke" d="
  M 154.47 36.68
  Q 149.29 36.09 144.93 39.25"
/>
<path stroke="#5879aa" vector-effect="non-scaling-stroke" d="
  M 65.11 37.14
  Q 64.35 36.90 64.03 36.54"
/>
<path stroke="#5879aa" vector-effect="non-scaling-stroke" d="
  M 69.69 47.53
  L 69.30 63.49
  A 0.66 0.66 0.0 0 1 68.64 64.14
  L 62.22 64.14
  A 0.71 0.71 0.0 0 1 61.51 63.43
  L 61.51 61.90
  A 0.44 0.44 0.0 0 0 60.80 61.55
  L 56.75 64.66"
/>
<path stroke="#5879aa" vector-effect="non-scaling-stroke" d="
  M 54.30 64.59
  Q 50.02 63.61 45.84 64.53"
/>
<path stroke="#5879aa" vector-effect="non-scaling-stroke" d="
  M 45.94 46.95
  Q 46.77 47.39 47.10 46.81"
/>
<path stroke="#5879aa" vector-effect="non-scaling-stroke" d="
  M 47.26 45.21
  Q 46.74 44.98 46.02 45.22"
/>
<path stroke="#5879aa" vector-effect="non-scaling-stroke" d="
  M 143.19 43.24
  L 142.67 49.27"
/>
<path stroke="#5879aa" vector-effect="non-scaling-stroke" d="
  M 137.80 55.40
  L 133.00 55.43"
/>
<path stroke="#5879aa" vector-effect="non-scaling-stroke" d="
  M 133.88 52.86
  Q 134.91 52.34 136.15 52.62
  A 1.16 1.16 0.0 0 0 137.56 51.51
  C 137.62 47.84 137.01 40.52 133.53 38.46
  C 130.50 36.68 127.64 36.77 123.72 36.66
  Q 118.72 36.53 113.53 37.17"
/>
<path stroke="#5879aa" vector-effect="non-scaling-stroke" d="
  M 81.75 38.27
  Q 78.05 37.43 73.54 37.37
  Q 72.84 37.36 72.58 37.69
  Q 72.27 38.06 72.33 38.71"
/>
<path stroke="#5879aa" vector-effect="non-scaling-stroke" d="
  M 96.73 37.21
  Q 99.54 37.84 102.27 37.19"
/>
<path stroke="#5879aa" vector-effect="non-scaling-stroke" d="
  M 87.74 54.24
  Q 87.16 55.09 88.10 55.83
  Q 88.53 56.17 88.84 55.71
  Q 89.06 55.39 88.74 55.03"
/>
<path stroke="#5879aa" vector-effect="non-scaling-stroke" d="
  M 131.38 64.70
  Q 131.38 64.57 131.37 64.44
  A 0.06 0.05 90.0 0 0 131.32 64.38
  L 114.44 64.62"
/>
<path stroke="#5879aa" vector-effect="non-scaling-stroke" d="
  M 5.16 63.83
  Q 6.27 50.51 5.23 37.69"
/>
<path stroke="#5879aa" vector-effect="non-scaling-stroke" d="
  M 49.23 58.19
  Q 53.23 59.29 58.24 58.53
  Q 61.29 58.07 60.98 55.02
  Q 60.73 52.59 58.76 53.40"
/>
<path stroke="#5879aa" vector-effect="non-scaling-stroke" d="
  M 165.76 55.50
  Q 167.60 51.18 166.03 46.92"
/>
</g>
<path fill="#8ca6c7" d="
  M 57.87 32.54
  Q 57.74 32.38 57.60 32.23
  Q 65.06 24.14 75.10 18.11
  Q 100.98 2.57 130.52 3.34
  Q 135.00 3.45 142.09 5.15
  C 156.10 8.52 166.35 18.94 161.45 34.29
  A 0.36 0.35 -38.9 0 1 160.76 34.22
  C 159.71 22.32 150.90 15.30 139.76 12.99
  Q 126.54 10.25 112.52 11.77
  C 92.59 13.94 72.94 20.28 57.87 32.54
  Z"
/>
<path fill="#8ca6c7" d="
  M 154.47 36.68
  Q 149.29 36.09 144.93 39.25
  C 138.75 30.39 128.36 26.79 117.99 25.63
  C 99.92 23.60 80.48 26.87 65.11 37.14
  Q 64.35 36.90 64.03 36.54
  Q 64.41 36.03 64.86 35.61
  Q 73.60 27.49 85.38 23.18
  Q 108.59 14.67 131.93 19.04
  Q 138.42 20.25 145.33 24.43
  Q 152.35 28.68 154.47 36.68
  Z"
/>
<path fill="#8ca6c7" d="
  M 143.19 43.24
  L 142.67 49.27
  Q 142.12 49.06 141.71 49.06
  A 0.79 0.77 6.2 0 0 140.96 49.65
  Q 140.13 52.97 137.80 55.40
  L 133.00 55.43
  Q 134.32 54.40 133.88 52.86
  Q 134.91 52.34 136.15 52.62
  A 1.16 1.16 0.0 0 0 137.56 51.51
  C 137.62 47.84 137.01 40.52 133.53 38.46
  C 130.50 36.68 127.64 36.77 123.72 36.66
  Q 118.72 36.53 113.53 37.17
  L 113.86 36.67
  A 0.55 0.54 21.7 0 0 113.50 35.84
  Q 104.81 34.26 95.10 35.42
  Q 87.59 36.32 81.75 38.27
  Q 78.05 37.43 73.54 37.37
  Q 72.84 37.36 72.58 37.69
  Q 72.27 38.06 72.33 38.71
  Q 71.66 37.65 72.42 37.08
  A 0.45 0.45 0.0 0 1 72.69 36.99
  L 80.83 36.99
  A 1.74 1.74 0.0 0 0 81.64 36.79
  Q 90.46 32.31 99.95 30.95
  Q 102.11 30.64 107.31 30.13
  Q 110.62 29.80 113.70 30.14
  Q 118.08 30.64 120.06 30.95
  C 128.14 32.22 137.39 35.56 140.96 43.47
  A 1.00 0.99 -6.3 0 0 141.68 44.04
  Q 142.67 44.24 143.19 43.24
  Z"
/>
<path fill="#234b8c" d="
  M 57.60 32.23
  Q 57.74 32.38 57.87 32.54
  L 57.18 33.25
  A 0.15 0.15 0.0 0 1 56.93 33.09
  Q 57.09 32.67 57.60 32.23
  Z"
/>
<path fill="#234b8c" d="
  M 5.16 63.83
  Q 6.27 50.51 5.23 37.69
  Q 4.71 37.00 5.62 36.45
  A 0.94 0.90 -59.2 0 1 6.09 36.32
  Q 22.20 36.26 28.29 36.39
  Q 31.44 36.45 33.58 39.65
  A 2.36 2.32 -66.8 0 1 33.96 40.62
  Q 34.51 43.90 34.40 48.00
  Q 34.31 51.30 31.52 52.98
  A 0.47 0.46 52.5 0 0 31.43 53.71
  L 33.74 56.02
  A 1.20 1.18 21.7 0 1 34.09 56.81
  L 34.44 63.31
  A 1.11 1.11 0.0 0 1 33.33 64.48
  L 27.91 64.48
  A 1.09 1.08 2.9 0 1 26.83 63.29
  C 27.10 60.42 27.24 57.23 23.51 57.13
  Q 18.38 56.99 13.18 57.13
  A 0.51 0.51 0.0 0 0 12.68 57.64
  L 12.68 63.78
  A 0.67 0.67 0.0 0 1 12.08 64.45
  Q 7.08 64.94 5.16 63.83
  Z
  M 12.68 43.97
  L 12.68 49.33
  A 0.58 0.58 0.0 0 0 13.26 49.91
  L 24.19 49.91
  A 2.83 2.23 -0.0 0 0 27.02 47.68
  L 27.02 45.62
  A 2.83 2.23 0.0 0 0 24.19 43.39
  L 13.26 43.39
  A 0.58 0.58 0.0 0 0 12.68 43.97
  Z"
/>
<path fill="#234b8c" d="
  M 64.03 36.54
  Q 64.35 36.90 65.11 37.14
  Q 70.27 40.48 69.69 47.53
  L 69.30 63.49
  A 0.66 0.66 0.0 0 1 68.64 64.14
  L 62.22 64.14
  A 0.71 0.71 0.0 0 1 61.51 63.43
  L 61.51 61.90
  A 0.44 0.44 0.0 0 0 60.80 61.55
  L 56.75 64.66
  Q 56.51 64.15 54.30 64.59
  Q 50.02 63.61 45.84 64.53
  L 42.95 64.03
  A 2.14 1.84 -22.7 0 1 42.46 63.87
  C 38.07 61.62 38.36 55.88 39.08 51.86
  A 3.32 3.30 -25.3 0 1 39.45 50.84
  Q 41.57 47.00 45.94 46.95
  Q 46.77 47.39 47.10 46.81
  L 55.96 46.92
  A 2.64 2.59 -33.6 0 1 56.94 47.11
  L 60.17 48.37
  A 0.54 0.54 0.0 0 0 60.90 47.86
  Q 60.86 45.29 59.74 43.76
  A 1.78 1.77 -18.0 0 0 58.31 43.04
  L 50.01 43.04
  A 1.07 1.04 16.5 0 0 49.13 43.50
  Q 48.38 44.63 47.26 45.21
  Q 46.74 44.98 46.02 45.22
  L 40.40 45.22
  A 0.78 0.77 -89.3 0 1 39.63 44.42
  Q 39.83 37.00 46.87 36.62
  Q 55.96 36.13 63.24 36.77
  Q 63.45 36.79 64.03 36.54
  Z
  M 49.23 58.19
  Q 53.23 59.29 58.24 58.53
  Q 61.29 58.07 60.98 55.02
  Q 60.73 52.59 58.76 53.40
  Q 58.50 53.06 58.22 53.06
  Q 53.99 52.95 50.30 53.01
  A 3.09 3.09 0.0 0 0 47.31 55.54
  Q 47.05 56.97 49.23 58.19
  Z"
/>
<path fill="#234b8c" d="
  M 142.67 49.27
  L 143.19 43.24
  Q 143.70 40.98 144.93 39.25
  Q 149.29 36.09 154.47 36.68
  Q 160.89 36.26 166.77 36.69
  Q 174.16 37.23 174.96 44.54
  Q 175.79 52.17 174.53 59.06
  Q 174.05 61.67 171.47 63.43
  Q 169.66 64.66 166.20 64.89
  Q 160.02 65.29 152.40 65.05
  C 142.51 64.73 142.23 56.99 142.67 49.27
  Z
  M 165.76 55.50
  Q 167.60 51.18 166.03 46.92
  Q 164.86 44.43 162.89 44.36
  Q 157.59 44.16 154.83 44.40
  A 3.50 3.50 0.0 0 0 151.64 47.89
  L 151.64 53.68
  A 3.26 3.25 -85.8 0 0 154.41 56.90
  Q 161.51 57.96 165.76 55.50
  Z"
/>
<path fill="#234b8c" d="
  M 188.58 39.49
  A 0.39 0.39 0.0 0 0 189.22 39.88
  L 192.01 37.49
  A 0.92 0.85 16.2 0 1 192.41 37.29
  C 200.83 35.42 210.98 36.22 211.31 47.05
  Q 211.56 55.51 211.33 63.66
  A 0.84 0.84 0.0 0 1 210.49 64.47
  L 203.25 64.47
  A 0.82 0.82 0.0 0 1 202.43 63.64
  Q 202.60 54.19 202.53 51.25
  Q 202.47 48.97 202.04 47.41
  A 3.07 3.07 0.0 0 0 199.63 45.22
  C 195.56 44.49 189.33 43.97 189.14 49.99
  Q 188.97 55.36 189.09 63.52
  A 0.94 0.94 0.0 0 1 188.15 64.48
  L 180.87 64.48
  A 0.87 0.87 0.0 0 1 180.00 63.61
  L 180.00 37.58
  A 0.61 0.61 0.0 0 1 180.61 36.97
  L 187.65 36.97
  A 0.85 0.82 67.2 0 1 188.25 37.23
  Q 188.94 37.94 188.58 39.49
  Z"
/>
<path fill="#234b8c" d="
  M 133.88 52.86
  L 116.50 52.88
  A 0.40 0.40 0.0 0 0 116.10 53.28
  Q 116.11 55.23 116.95 57.32
  A 1.16 1.15 -3.9 0 0 117.76 58.02
  Q 122.80 59.23 127.87 57.94
  A 1.28 1.27 -86.3 0 0 128.75 57.16
  L 129.22 55.96
  A 0.91 0.90 11.2 0 1 130.08 55.39
  L 133.00 55.43
  L 137.80 55.40
  C 136.84 59.95 136.51 62.92 131.38 64.70
  Q 131.38 64.57 131.37 64.44
  A 0.06 0.05 90.0 0 0 131.32 64.38
  L 114.44 64.62
  Q 109.14 63.48 107.94 58.03
  Q 106.06 49.43 108.23 42.24
  Q 109.50 38.04 113.53 37.17
  Q 118.72 36.53 123.72 36.66
  C 127.64 36.77 130.50 36.68 133.53 38.46
  C 137.01 40.52 137.62 47.84 137.56 51.51
  A 1.16 1.16 0.0 0 1 136.15 52.62
  Q 134.91 52.34 133.88 52.86
  Z
  M 116.12 46.78
  L 128.74 46.84
  A 0.20 0.20 0.0 0 0 128.94 46.64
  L 128.94 46.33
  A 3.80 2.95 0.3 0 0 125.16 43.36
  L 119.74 43.34
  A 3.80 2.95 0.3 0 0 115.92 46.27
  L 115.92 46.58
  A 0.20 0.20 0.0 0 0 116.12 46.78
  Z"
/>
<path fill="#234b8c" d="
  M 96.73 37.21
  Q 99.54 37.84 102.27 37.19
  Q 103.69 36.73 104.31 37.08
  Q 104.99 37.47 104.38 38.95
  Q 100.18 49.05 94.31 63.48
  A 1.61 1.61 0.0 0 1 92.82 64.48
  L 83.94 64.48
  A 1.54 1.53 -11.1 0 1 82.52 63.53
  L 72.33 38.71
  Q 72.27 38.06 72.58 37.69
  Q 72.84 37.36 73.54 37.37
  Q 78.05 37.43 81.75 38.27
  L 87.74 54.24
  Q 87.16 55.09 88.10 55.83
  Q 88.53 56.17 88.84 55.71
  Q 89.06 55.39 88.74 55.03
  Q 92.62 43.64 95.25 37.50
  Q 95.64 36.60 96.73 37.21
  Z"
/>
<path fill="#8ca6c7" d="
  M 102.27 37.19
  Q 99.54 37.84 96.73 37.21
  Q 99.55 36.65 102.27 37.19
  Z"
/>
<path fill="#8ca6c7" d="
  M 5.16 63.83
  L 5.23 37.69
  Q 6.27 50.51 5.16 63.83
  Z"
/>
<path fill="#8ca6c7" d="
  M 47.26 45.21
  Q 46.80 45.82 47.10 46.81
  Q 46.77 47.39 45.94 46.95
  L 46.02 45.22
  Q 46.74 44.98 47.26 45.21
  Z"
/>
<path fill="#8ca6c7" d="
  M 165.76 55.50
  L 166.03 46.92
  Q 167.60 51.18 165.76 55.50
  Z"
/>
<path fill="#8ca6c7" d="
  M 69.69 47.53
  L 69.84 63.67
  A 0.66 0.65 89.6 0 1 69.20 64.33
  Q 68.16 64.36 68.02 65.14
  A 0.99 0.96 -67.6 0 0 68.40 66.09
  C 76.84 72.23 87.81 73.06 97.83 72.76
  Q 109.24 72.43 119.95 67.54
  A 0.27 0.26 63.4 0 1 120.29 67.66
  L 120.30 67.67
  A 0.26 0.25 -31.9 0 1 120.22 67.99
  Q 112.84 73.20 101.54 75.80
  Q 87.71 78.99 72.99 75.51
  Q 62.04 72.92 56.75 64.66
  L 60.80 61.55
  A 0.44 0.44 0.0 0 1 61.51 61.90
  L 61.51 63.43
  A 0.71 0.71 0.0 0 0 62.22 64.14
  L 68.64 64.14
  A 0.66 0.66 0.0 0 0 69.30 63.49
  L 69.69 47.53
  Z"
/>
<path fill="#8ca6c7" d="
  M 49.23 58.19
  Q 49.72 56.38 50.76 55.45
  A 0.36 0.36 0.0 0 1 51.36 55.66
  Q 51.44 56.25 50.77 57.15
  A 0.68 0.67 18.5 0 0 51.31 58.23
  L 55.38 58.23
  A 1.36 1.36 0.0 0 0 56.68 57.26
  Q 57.28 55.27 58.76 53.40
  Q 60.73 52.59 60.98 55.02
  Q 61.29 58.07 58.24 58.53
  Q 53.23 59.29 49.23 58.19
  Z"
/>
<path fill="#8ca6c7" d="
  M 87.74 54.24
  Q 88.10 55.00 88.74 55.03
  Q 89.06 55.39 88.84 55.71
  Q 88.53 56.17 88.10 55.83
  Q 87.16 55.09 87.74 54.24
  Z"
/>
<path fill="#8ca6c7" d="
  M 54.30 64.59
  L 51.73 64.72
  A 0.65 0.65 0.0 0 0 51.18 65.65
  Q 55.23 74.00 63.43 77.66
  Q 70.63 80.88 77.74 81.82
  Q 99.36 84.71 119.70 77.13
  Q 128.70 73.77 135.69 67.64
  A 0.14 0.14 0.0 0 1 135.89 67.83
  C 128.81 76.91 116.22 82.59 105.24 85.55
  Q 92.54 88.99 78.23 88.38
  C 65.98 87.87 42.60 81.97 45.84 64.53
  Q 50.02 63.61 54.30 64.59
  Z"
/>
<path fill="#8ca6c7" d="
  M 131.38 64.70
  Q 123.02 65.53 114.44 64.62
  L 131.32 64.38
  A 0.06 0.05 90.0 0 1 131.37 64.44
  Q 131.38 64.57 131.38 64.70
  Z"
/>
<path fill="#8ca6c7" d="
  M 147.75 67.73
  A 0.22 0.21 -46.0 0 1 148.05 67.72
  L 148.27 67.95
  A 0.05 0.05 0.0 0 1 148.28 68.02
  Q 139.37 79.31 127.01 86.50
  Q 105.73 98.87 81.50 100.25
  Q 69.91 100.91 59.28 97.46
  C 50.17 94.51 42.77 88.23 41.62 78.15
  A 0.21 0.20 29.0 0 1 42.01 78.04
  C 45.94 86.32 53.90 90.56 62.78 92.19
  Q 74.73 94.39 85.51 93.32
  Q 92.07 92.66 92.44 92.62
  Q 112.16 90.05 129.88 81.14
  Q 139.76 76.16 147.75 67.73
  Z"
/>
</svg>
